<svg version="1.1" id="Layer_1" xmlns="http://www.w3.org/2000/svg" xmlns:xlink="http://www.w3.org/1999/xlink" x="0px" y="0px"
	 width="100%" viewBox="0 0 496 496" enable-background="new 0 0 496 496" xml:space="preserve">
<path fill="#000000" opacity="1.000000" stroke="none" 
	d="
M274.020233,218.987671 
	C272.244507,219.834732 270.468750,220.681808 267.487427,222.103958 
	C266.394684,207.136932 267.392639,192.807953 266.788422,176.886093 
	C259.636536,185.220520 255.287674,193.763916 248.842178,202.122467 
	C243.085068,194.399200 237.739304,187.227768 232.393555,180.056335 
	C232.009583,180.181519 231.625610,180.306702 231.241638,180.431885 
	C231.241638,186.008911 231.243637,191.585938 231.241043,197.162964 
	C231.238876,201.824890 231.233902,206.486832 231.225754,211.148758 
	C231.194824,228.839523 218.037506,239.280273 200.383133,235.842880 
	C194.018341,234.603622 188.584167,232.178986 185.471420,226.208435 
	C182.154861,219.847015 184.606003,212.070984 191.119614,207.431427 
	C199.366241,201.557434 208.521606,200.478500 217.974533,202.385010 
	C219.718185,201.313766 219.101059,199.870529 219.122543,198.612198 
	C219.270401,189.961136 219.482819,181.309631 219.476959,172.658401 
	C219.475174,170.031662 220.543839,169.137650 222.980438,168.980026 
	C227.665802,168.676941 231.603470,169.252991 234.679642,173.687439 
	C238.449478,179.121826 243.022583,183.998978 247.164581,189.015549 
	C249.723099,188.257050 250.027618,186.241943 250.795914,184.692764 
	C255.600937,175.003860 260.316956,165.270874 265.080994,155.561584 
	C267.238220,151.165039 272.812256,149.140961 277.112640,151.111404 
	C278.746063,151.859848 279.106445,153.257065 279.108368,154.808350 
	C279.131927,173.787476 279.140259,192.766602 279.136444,211.745743 
	C279.135803,215.071686 276.069366,216.290817 274.202911,218.736679 
	C274.001068,219.000320 274.020233,218.987671 274.020233,218.987671 
M207.010162,204.420425 
	C205.012680,204.377167 203.061325,204.441040 201.890366,206.590637 
	C203.382156,209.019119 205.460587,208.664108 207.529236,207.833923 
	C209.815704,206.916321 209.975052,205.747498 207.010162,204.420425 
z"/>
<path fill="#000000" opacity="1.000000" stroke="none" 
	d="
M273.993439,219.008850 
	C288.660583,210.169373 301.147949,198.699051 312.790283,186.282425 
	C319.289459,179.351044 325.343048,172.023407 329.282715,163.213837 
	C334.342102,151.900528 330.211029,145.486679 317.901337,145.177811 
	C312.637665,145.045746 307.608795,146.865234 302.342499,146.678329 
	C306.558502,143.586624 311.558563,143.097687 316.348969,142.293869 
	C321.706207,141.394928 327.058685,140.081131 332.656525,141.421783 
	C342.042725,143.669754 345.272705,148.972092 342.627045,158.338516 
	C340.350677,166.397461 335.667206,173.084503 330.469879,179.392334 
	C309.782043,204.500397 284.444092,224.128647 256.916382,241.081116 
	C235.588608,254.215454 213.508987,265.812469 189.246704,272.695435 
	C182.155243,274.707184 174.943115,275.759705 167.547440,275.348938 
	C157.525742,274.792297 152.771530,268.385254 155.381805,258.740143 
	C158.333481,247.833603 165.361649,239.566910 173.311737,230.240768 
	C173.539688,233.854858 171.915176,234.994278 170.919708,236.344589 
	C167.533005,240.938522 164.665955,245.776154 163.147705,251.331818 
	C161.116547,258.764404 165.031418,264.170135 172.701859,264.739685 
	C180.473907,265.316742 187.987061,264.060333 195.308945,261.660156 
	C223.917587,252.282074 250.042007,238.252670 273.829071,219.262482 
	C274.020233,218.987671 274.001068,219.000320 273.993439,219.008850 
z"/>
<path fill="#000000" opacity="1.000000" stroke="none" 
	d="
M309.961243,239.138992 
	C318.673859,249.494659 313.336853,262.381561 298.080139,265.076904 
	C291.962646,266.157684 285.782990,265.472687 279.970978,262.883179 
	C270.024170,258.451416 265.107849,249.141632 267.023956,238.359665 
	C267.719727,234.444656 275.951233,229.331467 279.567780,230.761154 
	C281.141479,231.383270 282.507172,230.906921 283.957642,230.791809 
	C293.633575,230.023911 302.576965,231.553329 309.961243,239.138992 
M291.929932,234.817017 
	C289.470001,233.633636 286.999359,232.268860 284.333344,235.275620 
	C287.143738,237.257019 289.542816,237.759308 291.929932,234.817017 
z"/>
<path fill="#000000" opacity="1.000000" stroke="none" 
	d="
M285.219116,330.757935 
	C284.255066,334.306946 281.736237,333.373444 279.775635,333.141785 
	C277.150421,332.831543 277.653351,330.460144 277.718018,328.769165 
	C277.849976,325.321472 277.386139,323.130432 272.943695,323.221130 
	C268.847137,323.304779 267.655090,324.931488 267.920105,328.638092 
	C268.119324,331.424622 267.456512,333.445099 263.861725,333.405731 
	C260.302185,333.366760 259.791840,331.442810 259.834076,328.585785 
	C259.915314,323.093750 259.857819,317.599762 259.864166,312.106567 
	C259.867340,309.386566 259.626801,306.728516 263.718750,306.582703 
	C267.719391,306.440155 268.034302,308.854034 267.934326,311.713562 
	C267.817017,315.068787 268.734039,317.049957 272.677673,316.963501 
	C276.152588,316.887360 278.087250,315.977051 277.692108,312.101593 
	C277.528168,310.493744 277.816437,308.839813 277.894318,307.299988 
	C284.938629,305.825867 285.288757,306.062164 285.300690,312.304565 
	C285.312134,318.296967 285.277130,324.289398 285.219116,330.757935 
z"/>
<path fill="#000000" opacity="1.000000" stroke="none" 
	d="
M216.759537,306.623291 
	C226.240967,307.261902 230.633194,313.728424 226.477203,321.102997 
	C224.493683,324.622681 224.622330,327.113739 226.901123,330.026154 
	C227.368179,330.623108 227.454041,331.518311 227.830185,332.607971 
	C223.668549,333.844849 220.219971,334.262817 218.156525,329.629089 
	C217.421265,327.977966 216.597214,326.139191 214.241837,326.453125 
	C211.819931,326.775879 212.295639,328.831207 212.169052,330.366699 
	C211.904922,333.570709 209.658569,333.286560 207.451157,333.319702 
	C204.943268,333.357330 204.401093,331.865051 204.397400,329.777863 
	C204.386185,323.462952 204.401093,317.147064 204.287628,310.833679 
	C204.236084,307.966339 205.238541,306.451202 208.316177,306.587616 
	C210.972260,306.705353 213.637741,306.611481 216.759537,306.623291 
M212.285248,314.906097 
	C212.394821,316.766632 211.536575,319.174744 214.478745,319.589752 
	C216.602966,319.889435 218.869568,320.045624 220.145782,317.703583 
	C220.987686,316.158569 220.534592,314.579926 219.166077,313.795380 
	C216.953125,312.526733 214.463913,310.895477 212.285248,314.906097 
z"/>
<path fill="#000000" opacity="1.000000" stroke="none" 
	d="
M322.596130,332.963409 
	C314.647095,335.624695 312.525177,328.942017 309.304779,324.769623 
	C305.946106,325.636261 306.036346,328.006378 305.886108,330.080475 
	C305.669678,333.068176 303.840668,333.398376 301.407593,333.354858 
	C298.760406,333.307587 297.928925,331.862518 297.923767,329.547333 
	C297.910126,323.394318 297.922241,317.241211 297.891296,311.088318 
	C297.877960,308.435944 298.515564,306.651184 301.765106,306.594391 
	C304.884216,306.539856 305.883728,307.980011 305.915344,310.786957 
	C305.929626,312.056610 305.609711,313.457672 306.971771,314.896210 
	C311.662506,311.907562 313.914948,303.347595 322.582245,307.706787 
	C320.640930,310.040741 318.959198,312.458191 316.879486,314.462708 
	C314.282684,316.965668 314.726593,319.031799 316.554962,321.811523 
	C318.865234,325.323944 322.370056,328.210236 322.596130,332.963409 
z"/>
<path fill="#000000" opacity="1.000000" stroke="none" 
	d="
M187.674377,326.509552 
	C190.947510,326.841736 193.934021,326.934723 196.918030,327.079285 
	C199.004654,327.180328 201.015167,327.426300 201.070343,330.245209 
	C201.126923,333.134888 199.177567,333.345673 197.026550,333.342102 
	C192.361572,333.334381 187.694748,333.262085 183.032242,333.370239 
	C180.042160,333.439606 178.830002,332.142456 178.871475,329.194000 
	C178.958160,323.030975 178.921295,316.865814 178.893143,310.701721 
	C178.881546,308.162903 179.698914,306.592804 182.595459,306.580597 
	C187.256561,306.560913 191.916351,306.315613 196.577835,306.257477 
	C198.490936,306.233582 200.221985,306.504456 200.315170,309.149231 
	C200.414795,311.977081 198.774323,312.497833 196.529068,312.493591 
	C194.197510,312.489166 191.865509,312.450897 189.534546,312.484955 
	C187.982193,312.507660 186.966263,313.243713 187.019073,314.912872 
	C187.070465,316.536591 188.335495,316.627747 189.530197,316.660095 
	C191.694687,316.718719 193.860580,316.725769 196.025864,316.755463 
	C198.333954,316.787140 199.279846,318.005615 199.209625,320.254395 
	C199.141647,322.431274 197.850342,323.110199 195.947556,323.149567 
	C193.948959,323.190918 191.946365,323.156311 189.952515,323.273712 
	C188.125641,323.381256 186.510284,323.818024 187.674377,326.509552 
z"/>
<path fill="#000000" opacity="1.000000" stroke="none" 
	d="
M344.505493,327.132996 
	C347.262817,327.482391 347.928741,328.969086 347.655762,331.084320 
	C347.356934,333.399780 345.583344,333.344513 343.895996,333.348907 
	C339.240906,333.361023 334.584351,333.276978 329.931091,333.368256 
	C327.070923,333.424377 325.633942,332.436218 325.694885,329.339050 
	C325.815918,323.190125 325.780029,317.035950 325.684753,310.885895 
	C325.640808,308.047516 326.579376,306.517517 329.671844,306.580597 
	C334.490997,306.678864 339.313995,306.611664 344.135132,306.576172 
	C346.082977,306.561829 347.308807,307.128265 347.261597,309.399323 
	C347.217133,311.539856 346.149475,312.360291 344.160217,312.367615 
	C341.832916,312.376190 339.501923,312.342255 337.179871,312.465424 
	C335.597687,312.549316 333.413788,312.264893 333.555847,314.743378 
	C333.697479,317.213898 335.902100,316.561523 337.444794,316.654999 
	C339.101532,316.755402 340.768463,316.690582 342.430939,316.692749 
	C344.528046,316.695526 345.998993,317.403900 346.036194,319.805573 
	C346.072113,322.124146 344.802948,323.100769 342.634583,323.151947 
	C340.640381,323.199005 338.644409,323.187714 336.651184,323.257629 
	C335.136932,323.310730 333.397827,323.304321 333.549500,325.499603 
	C333.681793,327.414001 335.306091,327.158539 336.603088,327.163177 
	C339.096161,327.172089 341.589447,327.120300 344.505493,327.132996 
z"/>
<path fill="#000000" opacity="1.000000" stroke="none" 
	d="
M250.261719,312.888184 
	C253.074524,319.610718 255.750046,325.983734 258.546204,332.644073 
	C254.373764,333.559326 251.454224,334.151611 249.063171,330.394806 
	C247.472366,327.895325 239.345154,328.136475 237.716324,330.677368 
	C235.397903,334.294006 232.578949,333.444336 229.282654,332.749207 
	C229.469543,328.413269 232.063110,325.186432 233.501709,321.545837 
	C234.663666,318.605347 235.895630,315.691589 237.145126,312.786865 
	C238.503906,309.628113 239.325607,306.409576 244.171188,306.436310 
	C248.868652,306.462280 248.689453,310.008911 250.261719,312.888184 
M243.556000,322.570740 
	C248.197449,320.672485 244.253632,318.668396 243.463852,316.662506 
	C243.375702,318.644501 239.365799,320.117828 243.556000,322.570740 
z"/>
<path fill="#000000" opacity="1.000000" stroke="none" 
	d="
M159.553375,332.802795 
	C152.940842,329.853577 152.622299,329.020874 156.129562,324.123566 
	C160.021454,324.473328 163.566650,329.451569 168.235855,325.782410 
	C166.915405,322.955536 164.325470,323.024078 162.225296,322.360535 
	C157.923309,321.001343 154.370819,318.884125 154.851196,313.760132 
	C155.317825,308.782898 159.074982,307.044281 163.488678,306.213806 
	C166.921463,305.567993 170.080078,306.481232 173.222122,307.590973 
	C175.077652,308.246368 176.555069,309.123474 175.498276,311.604095 
	C174.521912,313.895935 173.404785,315.172089 170.608795,314.125427 
	C168.483398,313.329773 166.273590,311.359100 163.583115,313.515930 
	C164.338074,316.469849 166.995300,316.431458 168.984253,317.164703 
	C174.830017,319.319916 177.020187,322.142975 176.218552,326.810059 
	C175.526306,330.840271 171.921570,333.326691 166.370865,333.401703 
	C164.224533,333.430725 162.073502,333.110596 159.553375,332.802795 
z"/>
<path fill="#000000" opacity="1.000000" stroke="none" 
	d="
M307.364624,179.281952 
	C304.938995,182.571472 302.966614,185.793350 299.072144,187.453461 
	C300.768890,184.943726 302.543671,182.482590 304.144653,179.913193 
	C306.728729,175.766083 309.569885,171.267044 306.822540,166.452560 
	C304.121765,161.719635 298.911804,162.947586 294.545288,163.357574 
	C290.147552,163.770493 285.814331,164.870255 281.358429,165.686356 
	C279.869812,161.558014 280.727509,159.194305 285.078888,158.121475 
	C292.331055,156.333481 299.433868,153.669800 307.091736,155.656433 
	C312.761169,157.127213 314.851868,160.722855 313.613190,166.484406 
	C312.606293,171.167557 310.201782,175.116531 307.364624,179.281952 
z"/>
<path fill="#000000" opacity="1.000000" stroke="none" 
	d="
M202.947281,250.280228 
	C196.693466,251.649353 190.888962,253.080734 184.814316,251.448547 
	C179.605606,250.049057 176.893860,246.217087 178.177933,241.051178 
	C179.254288,236.720963 180.735962,232.495270 184.325211,229.413666 
	C187.979233,231.459991 189.288162,233.708694 187.769012,237.995911 
	C185.500565,244.397781 188.553711,248.214020 195.460831,248.638657 
	C197.945709,248.791412 200.413055,248.674042 202.878220,247.974976 
	C205.032730,247.363998 207.317947,247.213898 210.292419,246.741562 
	C208.217453,249.743881 205.427048,249.225464 202.947281,250.280228 
z"/>
<path fill="#000000" opacity="1.000000" stroke="none" 
	d="
M232.240143,349.356049 
	C232.291580,351.793243 232.435104,353.788605 232.283783,355.761292 
	C232.158676,357.392242 233.065994,359.989746 230.301392,360.023071 
	C227.302094,360.059235 229.291382,357.107758 228.364380,355.790924 
	C225.134689,359.948792 224.989990,359.970123 221.601715,356.748596 
	C220.906387,358.039673 221.420853,360.457550 218.891006,360.056610 
	C216.601349,359.693726 216.981873,357.679260 216.878052,356.106873 
	C216.769226,354.458862 216.761246,352.794373 216.855591,351.145447 
	C216.954575,349.415436 216.485855,347.308136 219.071136,346.824738 
	C221.415436,346.386383 222.245667,348.046265 223.089828,349.713440 
	C223.451782,350.428284 223.888687,351.105194 224.325317,351.857513 
	C227.071426,350.903229 226.461777,346.577454 229.955261,346.794708 
	C231.329239,346.880127 232.077774,347.536743 232.240143,349.356049 
z"/>
<path fill="#000000" opacity="1.000000" stroke="none" 
	d="
M262.492004,349.454163 
	C261.548279,351.804382 259.663361,350.063629 258.116364,351.033173 
	C260.551025,352.655396 264.305206,353.538513 262.756653,357.452209 
	C261.443298,360.771606 258.318909,360.600250 255.482483,360.193024 
	C253.280457,359.876831 251.254211,359.008331 252.064743,356.198792 
	C253.777557,354.774597 255.098022,356.414642 257.096771,356.212555 
	C254.359329,353.808136 249.222610,352.316498 253.411255,347.720123 
	C255.679733,345.230835 260.270386,346.100739 262.492004,349.454163 
z"/>
<path fill="#000000" opacity="1.000000" stroke="none" 
	d="
M240.291962,360.282898 
	C236.166779,357.946686 234.232651,351.943481 235.908936,348.229095 
	C236.413910,347.110138 237.208878,346.754547 238.251404,346.938751 
	C239.666534,347.188751 239.890106,348.359467 240.043747,349.565887 
	C240.310165,351.658203 239.576080,353.924988 241.076401,355.796936 
	C241.251144,356.014923 241.661331,356.044250 242.260376,356.276672 
	C244.842636,354.713898 243.659027,351.955475 244.053360,349.713226 
	C244.289352,348.371277 244.490967,346.973877 246.288559,346.977814 
	C248.176041,346.981964 248.139786,348.444366 248.313141,349.776337 
	C249.341507,357.678650 247.586243,360.134583 240.291962,360.282898 
z"/>
<path fill="#000000" opacity="1.000000" stroke="none" 
	d="
M277.941589,354.956268 
	C279.449768,356.896790 281.009064,356.339294 282.651031,355.806458 
	C283.670258,355.475708 284.687988,355.760254 285.113434,356.894531 
	C285.641907,358.303619 284.767303,359.234100 283.647034,359.644531 
	C280.348328,360.853088 276.991425,361.137146 274.522797,358.084137 
	C272.184906,355.192810 271.918365,351.920380 274.440430,348.950928 
	C276.959381,345.985107 280.281891,346.183990 283.607452,347.286285 
	C284.542664,347.596252 285.406342,348.371857 285.151489,349.549530 
	C284.840576,350.986084 283.734955,351.313934 282.452515,350.963623 
	C279.158966,350.064056 277.101196,350.649231 277.941589,354.956268 
z"/>
<path fill="#000000" opacity="1.000000" stroke="none" 
	d="
M270.199463,357.682709 
	C269.833527,359.725800 268.879303,360.376465 267.315002,359.954498 
	C266.190979,359.651337 265.833984,358.689301 265.812408,357.673431 
	C265.753143,354.885864 265.744080,352.096039 265.782104,349.308075 
	C265.799164,348.058105 266.295013,347.036957 267.735748,346.941742 
	C269.408539,346.831238 270.126038,347.836395 270.167725,349.347168 
	C270.240082,351.971222 270.222870,354.597778 270.199463,357.682709 
z"/>
</svg>